<?xml version="1.0" standalone="no"?>
<!DOCTYPE svg PUBLIC "-//W3C//DTD SVG 20010904//EN"
 "http://www.w3.org/TR/2001/REC-SVG-20010904/DTD/svg10.dtd">
<svg version="1.0" xmlns="http://www.w3.org/2000/svg"
 width="50.000000px" height="50.000000px" viewBox="0 0 148.000000 148.000000"
 preserveAspectRatio="xMidYMid meet">

<g transform="translate(0.000000,148.000000) scale(0.100000,-0.100000)"
fill="#000000" stroke="none">
<path d="M600 1456 c-279 -60 -494 -263 -567 -536 -24 -88 -24 -271 0 -360 54
-205 195 -378 382 -470 116 -58 189 -74 325 -74 136 0 209 16 325 74 144 71
255 181 325 325 58 116 74 189 74 325 0 136 -16 209 -74 325 -91 185 -266 328
-465 381 -84 22 -245 27 -325 10z m9 -84 c88 -47 93 -181 9 -232 -66 -40 -137
-17 -170 57 -24 55 -18 99 19 144 44 51 86 61 142 31z m244 -296 c58 -24 72
-49 76 -137 4 -104 -4 -146 -37 -176 -25 -23 -25 -25 -8 -35 35 -20 46 -70 46
-213 0 -83 4 -135 10 -135 6 0 10 -4 10 -10 0 -5 -18 -10 -40 -10 -29 0 -42 5
-50 19 -5 11 -10 82 -10 160 0 159 -7 191 -45 191 l-25 0 0 -175 c0 -110 4
-175 10 -175 6 0 10 -4 10 -10 0 -6 -29 -10 -67 -10 -59 1 -66 2 -50 14 16 12
17 41 17 349 0 294 -2 336 -16 341 -8 3 -12 10 -9 16 9 15 141 12 178 -4z
m290 3 c46 -24 57 -49 57 -137 l0 -83 -37 3 -38 3 -3 98 c-3 103 -14 125 -48
96 -13 -11 -15 -31 -12 -114 l4 -100 64 -105 64 -105 4 -111 4 -110 -38 -33
c-33 -30 -42 -33 -83 -28 -34 4 -52 12 -73 36 -26 29 -28 38 -28 111 l0 80 40
0 40 0 0 -94 c0 -97 11 -125 45 -112 12 4 15 26 15 114 l0 108 -67 114 -68
115 -3 98 -4 97 35 35 c38 38 86 46 130 24z m-581 -30 c27 -27 30 -35 25 -72
-4 -23 -37 -125 -75 -227 l-69 -185 51 -2 c123 -6 156 -26 156 -92 0 -46 -29
-88 -76 -107 -40 -17 -231 -19 -286 -4 -53 15 -88 61 -88 116 0 49 164 508
198 554 44 58 117 67 164 19z"/>
<path d="M780 905 c0 -141 2 -155 18 -155 42 1 47 14 50 144 4 137 -4 166 -43
166 l-25 0 0 -155z"/>
</g>
</svg>
