<?xml version="1.0" standalone="no"?>
<!DOCTYPE svg PUBLIC "-//W3C//DTD SVG 20010904//EN"
 "http://www.w3.org/TR/2001/REC-SVG-20010904/DTD/svg10.dtd">
<svg version="1.0" xmlns="http://www.w3.org/2000/svg"
 width="1556.000000pt" height="2000.000000pt" viewBox="0 0 1556.000000 2000.000000"
 preserveAspectRatio="xMidYMid meet">

<g transform="translate(0.000000,2000.000000) scale(0.100000,-0.100000)"
fill="#000000" stroke="none">
<path d="M4460 11350 l0 -2070 3600 0 3600 0 0 2070 0 2070 -3600 0 -3600 0 0
-2070z m7130 0 l0 -2000 -3530 0 -3530 0 0 2000 0 2000 3530 0 3530 0 0 -2000z"/>
<path d="M6100 12455 c0 -12 15 -15 78 -15 71 0 81 -2 103 -26 l24 -26 3 -691
c2 -489 0 -703 -8 -730 -14 -48 -54 -67 -140 -67 -33 0 -60 -4 -60 -10 0 -6
82 -10 225 -10 124 0 225 4 225 9 0 4 -33 11 -74 13 -89 6 -121 24 -135 75
-13 46 -14 1389 -1 1358 4 -12 92 -344 196 -738 l188 -717 82 0 82 0 188 753
189 752 3 -689 c1 -464 -1 -701 -9 -728 -8 -31 -18 -43 -44 -54 -19 -8 -46
-14 -60 -14 -14 0 -25 -4 -25 -10 0 -6 107 -10 300 -10 193 0 300 4 300 10 0
6 -21 10 -47 10 -63 0 -95 18 -110 60 -16 46 -18 1366 -3 1422 13 47 21 52 95
58 33 3 60 10 60 15 0 6 -85 11 -231 13 l-231 2 -141 -557 c-78 -307 -154
-610 -170 -673 l-29 -115 -12 40 c-7 22 -83 324 -170 670 l-157 630 -242 3
c-211 2 -242 0 -242 -13z"/>
<path d="M8906 12438 c-10 -64 -16 -378 -7 -378 11 0 21 51 21 109 0 61 25
156 51 192 39 56 90 73 227 77 l122 4 0 -728 c0 -674 -1 -732 -18 -764 -19
-38 -41 -47 -114 -49 -27 -1 -48 -5 -48 -11 0 -6 117 -10 330 -10 213 0 330 4
330 10 0 6 -20 10 -44 10 -57 0 -104 17 -119 44 -9 16 -13 198 -15 760 l-3
738 123 -4 c109 -3 128 -6 168 -28 77 -44 101 -98 115 -272 4 -43 11 -78 17
-78 9 0 2 366 -7 398 -4 9 -125 12 -564 12 l-560 0 -5 -32z"/>
<path d="M5555 10403 c-32 -8 -74 -42 -90 -73 -22 -42 -19 -126 5 -165 35 -57
130 -83 194 -54 21 10 23 15 15 31 -8 14 -14 16 -29 8 -24 -13 -86 -13 -111 0
-10 6 -26 24 -34 40 -48 93 28 201 122 172 39 -12 53 -9 53 13 0 23 -76 40
-125 28z"/>
<path d="M5924 10399 c-37 -11 -92 -64 -101 -97 -11 -46 3 -121 28 -148 89
-96 232 -61 268 64 20 70 -34 161 -109 182 -40 11 -44 11 -86 -1z m96 -44 c40
-21 60 -53 60 -98 0 -73 -40 -116 -108 -117 -37 0 -50 6 -78 34 -28 28 -34 42
-34 75 0 91 83 146 160 106z"/>
<path d="M6270 10258 c0 -151 1 -158 20 -158 19 0 20 7 20 90 0 50 3 90 8 90
4 0 27 -30 52 -66 24 -36 47 -67 51 -69 3 -2 30 30 60 73 l54 77 3 -97 c2 -90
4 -98 22 -98 19 0 20 8 20 157 0 86 -3 153 -6 150 -4 -3 -36 -48 -73 -98 -36
-51 -71 -94 -76 -95 -6 -2 -34 31 -63 74 -29 42 -61 88 -72 102 l-20 25 0
-157z"/>
<path d="M7112 10262 c-34 -81 -62 -151 -62 -155 0 -4 8 -7 18 -7 13 0 23 13
32 40 l13 40 62 0 62 0 12 -40 c10 -33 16 -40 37 -40 17 0 24 4 21 13 -42 103
-121 284 -126 290 -4 4 -35 -59 -69 -141z m87 5 l20 -47 -43 0 -44 0 21 50
c11 27 22 48 23 47 2 -1 12 -24 23 -50z"/>
<path d="M7451 10258 c-1 -152 0 -158 19 -158 19 0 20 7 20 107 l0 108 110
-110 110 -110 0 153 c0 145 -1 152 -20 152 -19 0 -20 -7 -20 -107 l0 -108
-110 115 -109 115 0 -157z"/>
<path d="M8525 10402 c-35 -7 -65 -43 -65 -78 0 -37 22 -58 89 -88 52 -24 65
-60 31 -88 -27 -22 -40 -22 -85 -4 -34 14 -45 12 -45 -9 0 -18 46 -35 96 -35
57 0 94 33 94 82 0 46 -11 59 -77 93 -40 21 -59 37 -61 52 -6 39 47 52 109 28
23 -9 33 22 11 33 -24 13 -73 20 -97 14z"/>
<path d="M10185 10403 c-32 -8 -74 -42 -90 -73 -22 -42 -19 -126 5 -165 35
-57 130 -83 194 -54 21 10 23 15 15 31 -8 14 -14 16 -29 8 -24 -13 -86 -13
-111 0 -10 6 -26 24 -34 40 -48 93 28 201 122 172 39 -12 53 -9 53 13 0 23
-76 40 -125 28z"/>
<path d="M6740 10250 c0 -143 1 -150 20 -150 18 0 20 7 20 54 l0 53 52 5 c40
4 57 11 75 32 33 38 31 95 -3 130 -24 23 -35 26 -95 26 l-69 0 0 -150z m140
91 c26 -49 -9 -96 -67 -89 -26 3 -28 6 -31 56 l-3 52 45 0 c35 0 48 -5 56 -19z"/>
<path d="M7905 10303 c47 -84 55 -106 55 -150 0 -46 3 -53 20 -53 17 0 20 7
20 49 0 40 9 65 55 146 30 53 55 99 55 101 0 2 -10 4 -22 4 -18 0 -32 -16 -64
-76 l-42 -77 -38 74 c-32 61 -44 75 -66 77 l-27 3 54 -98z"/>
<path d="M8790 10250 l0 -150 100 0 c93 0 100 1 100 20 0 18 -7 20 -80 20
l-80 0 0 45 0 45 70 0 c63 0 70 2 70 20 0 18 -7 20 -70 20 l-70 0 0 45 0 44
77 3 c65 3 78 6 81 21 3 15 -7 17 -97 17 l-101 0 0 -150z"/>
<path d="M9140 10250 c0 -143 1 -150 20 -150 18 0 20 7 20 55 0 54 0 55 30 55
25 0 36 -9 66 -55 27 -41 43 -55 60 -55 24 0 23 1 -11 55 -19 30 -35 57 -35
60 0 4 9 18 20 32 20 25 26 76 14 108 -11 27 -60 45 -124 45 l-60 0 0 -150z
m140 91 c26 -49 -9 -96 -67 -89 -26 3 -28 6 -31 56 l-3 52 45 0 c35 0 48 -5
56 -19z"/>
<path d="M9485 10383 c33 -87 119 -283 124 -283 5 0 74 156 129 292 2 4 -7 8
-21 8 -22 0 -28 -11 -62 -100 -21 -55 -41 -100 -45 -100 -4 0 -25 45 -46 100
-34 87 -42 100 -63 100 -18 0 -22 -4 -16 -17z"/>
<path d="M9880 10250 c0 -143 1 -150 20 -150 19 0 20 7 20 150 0 143 -1 150
-20 150 -19 0 -20 -7 -20 -150z"/>
<path d="M10460 10250 l0 -150 105 0 c98 0 105 1 105 20 0 18 -7 20 -85 20
l-85 0 0 45 0 45 70 0 c63 0 70 2 70 20 0 17 -8 19 -67 22 l-68 3 -3 43 -3 42
80 0 c74 0 81 2 81 20 0 19 -7 20 -100 20 l-100 0 0 -150z"/>
</g>
</svg>
